<svg width="13" height="20" viewBox="0 0 13 20" fill="none" xmlns="http://www.w3.org/2000/svg">
<path d="M0.329346 9.47742L8.79079 0.176819C8.98648 -0.0384587 9.25508 -0.164517 9.547 -0.178062C9.83891 -0.191607 10.1179 -0.0909537 10.3323 0.105292L11.0152 0.729469C11.4596 1.13622 11.4912 1.82934 11.0858 2.27487L3.98048 10.085L11.7758 17.212C11.9903 17.4082 12.116 17.6772 12.1294 17.9697C12.1427 18.2625 12.042 18.5421 11.8463 18.7575L11.2232 19.4421C11.0273 19.6574 10.7589 19.7835 10.467 19.797C10.1751 19.8106 9.89613 19.7099 9.68165 19.5137L0.400127 11.0282C0.185134 10.8313 0.0596443 10.561 0.0469201 10.268C0.0328485 9.97387 0.133188 9.6932 0.329346 9.47742Z" fill="#595555"/>
</svg>
